<mxfile host="app.diagrams.net" agent="Mozilla/5.0 (Windows NT 10.0; Win64; x64) AppleWebKit/537.36 (KHTML, like Gecko) Chrome/134.0.0.0 Whale/4.31.304.16 Safari/537.36" version="26.2.14">
  <diagram name="페이지-1" id="y3kcWjA-gOdlDsoWyN4V">
    <mxGraphModel dx="1522" dy="949" grid="1" gridSize="10" guides="1" tooltips="1" connect="1" arrows="1" fold="1" page="1" pageScale="1" pageWidth="3200" pageHeight="1800" math="0" shadow="0">
      <root>
        <mxCell id="0" />
        <mxCell id="1" parent="0" />
        <mxCell id="xEvFalTOVBh-HHTwfLB2-4" value="Server contents" style="points=[[0,0],[0.25,0],[0.5,0],[0.75,0],[1,0],[1,0.25],[1,0.5],[1,0.75],[1,1],[0.75,1],[0.5,1],[0.25,1],[0,1],[0,0.75],[0,0.5],[0,0.25]];outlineConnect=0;gradientColor=none;html=1;whiteSpace=wrap;fontSize=12;fontStyle=0;container=1;pointerEvents=0;collapsible=0;recursiveResize=0;shape=mxgraph.aws4.group;grIcon=mxgraph.aws4.group_on_premise;strokeColor=#7D8998;fillColor=none;verticalAlign=top;align=left;spacingLeft=30;fontColor=#5A6C86;dashed=0;" vertex="1" parent="1">
          <mxGeometry x="860" y="627" width="390" height="290" as="geometry" />
        </mxCell>
        <mxCell id="xEvFalTOVBh-HHTwfLB2-2" value="" style="outlineConnect=0;dashed=0;verticalLabelPosition=bottom;verticalAlign=top;align=center;html=1;shape=mxgraph.aws3.ec2;fillColor=#F58534;gradientColor=none;" vertex="1" parent="xEvFalTOVBh-HHTwfLB2-4">
          <mxGeometry x="156.75" y="181" width="76.5" height="93" as="geometry" />
        </mxCell>
        <mxCell id="xEvFalTOVBh-HHTwfLB2-3" value="" style="shape=image;verticalLabelPosition=bottom;labelBackgroundColor=default;verticalAlign=top;aspect=fixed;imageAspect=0;image=https://cdn.hashnode.com/res/hashnode/image/upload/v1705941451858/3d68e792-e18a-4b5c-9590-4e4b4d45486d.png;" vertex="1" parent="xEvFalTOVBh-HHTwfLB2-4">
          <mxGeometry x="144" y="55.010000000000005" width="102" height="102" as="geometry" />
        </mxCell>
        <mxCell id="xEvFalTOVBh-HHTwfLB2-5" value="" style="shape=image;verticalLabelPosition=bottom;labelBackgroundColor=default;verticalAlign=top;aspect=fixed;imageAspect=0;image=https://static-00.iconduck.com/assets.00/c-sharp-c-icon-1822x2048-wuf3ijab.png;" vertex="1" parent="xEvFalTOVBh-HHTwfLB2-4">
          <mxGeometry x="270" y="47.239999999999995" width="104.6" height="117.53" as="geometry" />
        </mxCell>
        <mxCell id="xEvFalTOVBh-HHTwfLB2-7" value="" style="shape=image;verticalLabelPosition=bottom;labelBackgroundColor=default;verticalAlign=top;aspect=fixed;imageAspect=0;image=https://img.icons8.com/color/512/nginx.png;" vertex="1" parent="xEvFalTOVBh-HHTwfLB2-4">
          <mxGeometry x="20" y="51.620000000000005" width="108.77" height="108.77" as="geometry" />
        </mxCell>
        <mxCell id="xEvFalTOVBh-HHTwfLB2-8" value="" style="sketch=0;points=[[0,0,0],[0.25,0,0],[0.5,0,0],[0.75,0,0],[1,0,0],[0,1,0],[0.25,1,0],[0.5,1,0],[0.75,1,0],[1,1,0],[0,0.25,0],[0,0.5,0],[0,0.75,0],[1,0.25,0],[1,0.5,0],[1,0.75,0]];outlineConnect=0;fontColor=#232F3E;fillColor=#DD344C;strokeColor=#ffffff;dashed=0;verticalLabelPosition=bottom;verticalAlign=top;align=center;html=1;fontSize=12;fontStyle=0;aspect=fixed;shape=mxgraph.aws4.resourceIcon;resIcon=mxgraph.aws4.cognito;" vertex="1" parent="1">
          <mxGeometry x="1320" y="733" width="78" height="78" as="geometry" />
        </mxCell>
        <mxCell id="xEvFalTOVBh-HHTwfLB2-9" value="" style="endArrow=classic;startArrow=classic;html=1;rounded=0;exitX=1;exitY=0.5;exitDx=0;exitDy=0;entryX=0;entryY=0.5;entryDx=0;entryDy=0;entryPerimeter=0;" edge="1" parent="1" source="xEvFalTOVBh-HHTwfLB2-4" target="xEvFalTOVBh-HHTwfLB2-8">
          <mxGeometry width="50" height="50" relative="1" as="geometry">
            <mxPoint x="1270" y="790" as="sourcePoint" />
            <mxPoint x="1320" y="740" as="targetPoint" />
          </mxGeometry>
        </mxCell>
        <mxCell id="xEvFalTOVBh-HHTwfLB2-10" value="DataBases" style="points=[[0,0],[0.25,0],[0.5,0],[0.75,0],[1,0],[1,0.25],[1,0.5],[1,0.75],[1,1],[0.75,1],[0.5,1],[0.25,1],[0,1],[0,0.75],[0,0.5],[0,0.25]];outlineConnect=0;gradientColor=none;html=1;whiteSpace=wrap;fontSize=12;fontStyle=0;container=1;pointerEvents=0;collapsible=0;recursiveResize=0;shape=mxgraph.aws4.group;grIcon=mxgraph.aws4.group_on_premise;strokeColor=#7D8998;fillColor=none;verticalAlign=top;align=left;spacingLeft=30;fontColor=#5A6C86;dashed=0;" vertex="1" parent="1">
          <mxGeometry x="855" y="970" width="400" height="200" as="geometry" />
        </mxCell>
        <mxCell id="xEvFalTOVBh-HHTwfLB2-1" value="" style="sketch=0;outlineConnect=0;fontColor=#232F3E;gradientColor=none;fillColor=#C925D1;strokeColor=none;dashed=0;verticalLabelPosition=bottom;verticalAlign=top;align=center;html=1;fontSize=12;fontStyle=0;aspect=fixed;pointerEvents=1;shape=mxgraph.aws4.rds_instance;" vertex="1" parent="xEvFalTOVBh-HHTwfLB2-10">
          <mxGeometry x="75" y="61" width="78" height="78" as="geometry" />
        </mxCell>
        <mxCell id="xEvFalTOVBh-HHTwfLB2-14" value="" style="shape=image;verticalLabelPosition=bottom;labelBackgroundColor=default;verticalAlign=top;aspect=fixed;imageAspect=0;image=https://upload.wikimedia.org/wikipedia/labs/8/8e/Mysql_logo.png;" vertex="1" parent="xEvFalTOVBh-HHTwfLB2-10">
          <mxGeometry x="175" y="49" width="197.44" height="102" as="geometry" />
        </mxCell>
        <mxCell id="xEvFalTOVBh-HHTwfLB2-15" value="DataBase" style="swimlane;fontStyle=0;childLayout=stackLayout;horizontal=1;startSize=30;horizontalStack=0;resizeParent=1;resizeParentMax=0;resizeLast=0;collapsible=1;marginBottom=0;whiteSpace=wrap;html=1;" vertex="1" parent="1">
          <mxGeometry x="1295" y="995" width="140" height="120" as="geometry" />
        </mxCell>
        <mxCell id="xEvFalTOVBh-HHTwfLB2-16" value="userDB" style="text;strokeColor=none;fillColor=none;align=left;verticalAlign=middle;spacingLeft=4;spacingRight=4;overflow=hidden;points=[[0,0.5],[1,0.5]];portConstraint=eastwest;rotatable=0;whiteSpace=wrap;html=1;" vertex="1" parent="xEvFalTOVBh-HHTwfLB2-15">
          <mxGeometry y="30" width="140" height="30" as="geometry" />
        </mxCell>
        <mxCell id="xEvFalTOVBh-HHTwfLB2-17" value="gameDB" style="text;align=left;verticalAlign=middle;spacingLeft=4;spacingRight=4;overflow=hidden;points=[[0,0.5],[1,0.5]];portConstraint=eastwest;rotatable=0;whiteSpace=wrap;html=1;strokeColor=default;" vertex="1" parent="xEvFalTOVBh-HHTwfLB2-15">
          <mxGeometry y="60" width="140" height="30" as="geometry" />
        </mxCell>
        <mxCell id="xEvFalTOVBh-HHTwfLB2-18" value="chatDB" style="text;strokeColor=none;fillColor=none;align=left;verticalAlign=middle;spacingLeft=4;spacingRight=4;overflow=hidden;points=[[0,0.5],[1,0.5]];portConstraint=eastwest;rotatable=0;whiteSpace=wrap;html=1;" vertex="1" parent="xEvFalTOVBh-HHTwfLB2-15">
          <mxGeometry y="90" width="140" height="30" as="geometry" />
        </mxCell>
        <mxCell id="xEvFalTOVBh-HHTwfLB2-19" value="" style="endArrow=none;html=1;rounded=0;exitX=1;exitY=0.5;exitDx=0;exitDy=0;entryX=0;entryY=0.5;entryDx=0;entryDy=0;" edge="1" parent="1" source="xEvFalTOVBh-HHTwfLB2-10" target="xEvFalTOVBh-HHTwfLB2-17">
          <mxGeometry width="50" height="50" relative="1" as="geometry">
            <mxPoint x="1430" y="930" as="sourcePoint" />
            <mxPoint x="1480" y="880" as="targetPoint" />
          </mxGeometry>
        </mxCell>
        <mxCell id="xEvFalTOVBh-HHTwfLB2-22" value="userDB" style="swimlane;fontStyle=0;childLayout=stackLayout;horizontal=1;startSize=30;horizontalStack=0;resizeParent=1;resizeParentMax=0;resizeLast=0;collapsible=1;marginBottom=0;whiteSpace=wrap;html=1;" vertex="1" parent="1">
          <mxGeometry x="1510" y="932" width="140" height="60" as="geometry" />
        </mxCell>
        <mxCell id="xEvFalTOVBh-HHTwfLB2-23" value="userinfoTBL" style="text;strokeColor=none;fillColor=none;align=left;verticalAlign=middle;spacingLeft=4;spacingRight=4;overflow=hidden;points=[[0,0.5],[1,0.5]];portConstraint=eastwest;rotatable=0;whiteSpace=wrap;html=1;" vertex="1" parent="xEvFalTOVBh-HHTwfLB2-22">
          <mxGeometry y="30" width="140" height="30" as="geometry" />
        </mxCell>
        <mxCell id="xEvFalTOVBh-HHTwfLB2-26" style="edgeStyle=orthogonalEdgeStyle;rounded=0;orthogonalLoop=1;jettySize=auto;html=1;exitX=1;exitY=0.5;exitDx=0;exitDy=0;entryX=0;entryY=0.5;entryDx=0;entryDy=0;" edge="1" parent="1" source="xEvFalTOVBh-HHTwfLB2-16" target="xEvFalTOVBh-HHTwfLB2-22">
          <mxGeometry relative="1" as="geometry" />
        </mxCell>
        <mxCell id="xEvFalTOVBh-HHTwfLB2-27" value="gameDB" style="swimlane;fontStyle=0;childLayout=stackLayout;horizontal=1;startSize=30;horizontalStack=0;resizeParent=1;resizeParentMax=0;resizeLast=0;collapsible=1;marginBottom=0;whiteSpace=wrap;html=1;" vertex="1" parent="1">
          <mxGeometry x="1510" y="1025" width="140" height="90" as="geometry" />
        </mxCell>
        <mxCell id="xEvFalTOVBh-HHTwfLB2-28" value="gameinfoTBL" style="text;strokeColor=default;fillColor=none;align=left;verticalAlign=middle;spacingLeft=4;spacingRight=4;overflow=hidden;points=[[0,0.5],[1,0.5]];portConstraint=eastwest;rotatable=0;whiteSpace=wrap;html=1;" vertex="1" parent="xEvFalTOVBh-HHTwfLB2-27">
          <mxGeometry y="30" width="140" height="30" as="geometry" />
        </mxCell>
        <mxCell id="xEvFalTOVBh-HHTwfLB2-29" value="gameresultTBL" style="text;strokeColor=none;fillColor=none;align=left;verticalAlign=middle;spacingLeft=4;spacingRight=4;overflow=hidden;points=[[0,0.5],[1,0.5]];portConstraint=eastwest;rotatable=0;whiteSpace=wrap;html=1;" vertex="1" parent="xEvFalTOVBh-HHTwfLB2-27">
          <mxGeometry y="60" width="140" height="30" as="geometry" />
        </mxCell>
        <mxCell id="xEvFalTOVBh-HHTwfLB2-31" style="edgeStyle=orthogonalEdgeStyle;rounded=0;orthogonalLoop=1;jettySize=auto;html=1;exitX=1;exitY=0.5;exitDx=0;exitDy=0;entryX=0;entryY=0.5;entryDx=0;entryDy=0;" edge="1" parent="1" source="xEvFalTOVBh-HHTwfLB2-17" target="xEvFalTOVBh-HHTwfLB2-27">
          <mxGeometry relative="1" as="geometry" />
        </mxCell>
        <mxCell id="xEvFalTOVBh-HHTwfLB2-32" value="chatDB" style="swimlane;fontStyle=0;childLayout=stackLayout;horizontal=1;startSize=30;horizontalStack=0;resizeParent=1;resizeParentMax=0;resizeLast=0;collapsible=1;marginBottom=0;whiteSpace=wrap;html=1;" vertex="1" parent="1">
          <mxGeometry x="1510" y="1150" width="140" height="90" as="geometry" />
        </mxCell>
        <mxCell id="xEvFalTOVBh-HHTwfLB2-33" value="roomTBL" style="text;strokeColor=default;fillColor=none;align=left;verticalAlign=middle;spacingLeft=4;spacingRight=4;overflow=hidden;points=[[0,0.5],[1,0.5]];portConstraint=eastwest;rotatable=0;whiteSpace=wrap;html=1;" vertex="1" parent="xEvFalTOVBh-HHTwfLB2-32">
          <mxGeometry y="30" width="140" height="30" as="geometry" />
        </mxCell>
        <mxCell id="xEvFalTOVBh-HHTwfLB2-34" value="messageTBL" style="text;strokeColor=none;fillColor=none;align=left;verticalAlign=middle;spacingLeft=4;spacingRight=4;overflow=hidden;points=[[0,0.5],[1,0.5]];portConstraint=eastwest;rotatable=0;whiteSpace=wrap;html=1;" vertex="1" parent="xEvFalTOVBh-HHTwfLB2-32">
          <mxGeometry y="60" width="140" height="30" as="geometry" />
        </mxCell>
        <mxCell id="xEvFalTOVBh-HHTwfLB2-35" style="edgeStyle=orthogonalEdgeStyle;rounded=0;orthogonalLoop=1;jettySize=auto;html=1;exitX=1;exitY=0.5;exitDx=0;exitDy=0;entryX=0.004;entryY=-0.05;entryDx=0;entryDy=0;entryPerimeter=0;" edge="1" parent="1" source="xEvFalTOVBh-HHTwfLB2-18" target="xEvFalTOVBh-HHTwfLB2-34">
          <mxGeometry relative="1" as="geometry" />
        </mxCell>
        <mxCell id="xEvFalTOVBh-HHTwfLB2-36" value="API" style="swimlane;fontStyle=0;childLayout=stackLayout;horizontal=1;startSize=30;horizontalStack=0;resizeParent=1;resizeParentMax=0;resizeLast=0;collapsible=1;marginBottom=0;whiteSpace=wrap;html=1;" vertex="1" parent="1">
          <mxGeometry x="660" y="727" width="140" height="90" as="geometry" />
        </mxCell>
        <mxCell id="xEvFalTOVBh-HHTwfLB2-37" value="GET" style="text;strokeColor=default;fillColor=none;align=left;verticalAlign=middle;spacingLeft=4;spacingRight=4;overflow=hidden;points=[[0,0.5],[1,0.5]];portConstraint=eastwest;rotatable=0;whiteSpace=wrap;html=1;" vertex="1" parent="xEvFalTOVBh-HHTwfLB2-36">
          <mxGeometry y="30" width="140" height="30" as="geometry" />
        </mxCell>
        <mxCell id="xEvFalTOVBh-HHTwfLB2-38" value="POST" style="text;strokeColor=none;fillColor=none;align=left;verticalAlign=middle;spacingLeft=4;spacingRight=4;overflow=hidden;points=[[0,0.5],[1,0.5]];portConstraint=eastwest;rotatable=0;whiteSpace=wrap;html=1;" vertex="1" parent="xEvFalTOVBh-HHTwfLB2-36">
          <mxGeometry y="60" width="140" height="30" as="geometry" />
        </mxCell>
        <mxCell id="xEvFalTOVBh-HHTwfLB2-44" value="" style="endArrow=none;html=1;rounded=0;exitX=1;exitY=0.5;exitDx=0;exitDy=0;entryX=0;entryY=0.5;entryDx=0;entryDy=0;" edge="1" parent="1" source="xEvFalTOVBh-HHTwfLB2-37" target="xEvFalTOVBh-HHTwfLB2-4">
          <mxGeometry width="50" height="50" relative="1" as="geometry">
            <mxPoint x="1000" y="950" as="sourcePoint" />
            <mxPoint x="1050" y="900" as="targetPoint" />
          </mxGeometry>
        </mxCell>
      </root>
    </mxGraphModel>
  </diagram>
</mxfile>
